<svg width="24" height="25" viewBox="0 0 24 25" fill="none" xmlns="http://www.w3.org/2000/svg">
<path d="M16.24 2.34033H7.76C5 2.34033 4 3.34033 4 6.15033V18.5303C4 21.3403 5 22.3403 7.76 22.3403H16.23C19 22.3403 20 21.3403 20 18.5303V6.15033C20 3.34033 19 2.34033 16.24 2.34033ZM12 19.6403C11.04 19.6403 10.25 18.8503 10.25 17.8903C10.25 16.9303 11.04 16.1403 12 16.1403C12.96 16.1403 13.75 16.9303 13.75 17.8903C13.75 18.8503 12.96 19.6403 12 19.6403ZM14 6.59033H10C9.59 6.59033 9.25 6.25033 9.25 5.84033C9.25 5.43033 9.59 5.09033 10 5.09033H14C14.41 5.09033 14.75 5.43033 14.75 5.84033C14.75 6.25033 14.41 6.59033 14 6.59033Z" fill="url(#paint0_linear_161_326)"/>
<defs>
<linearGradient id="paint0_linear_161_326" x1="22.5741" y1="12.3403" x2="-1.26101" y2="12.3403" gradientUnits="userSpaceOnUse">
<stop stop-color="#BD0DF4"/>
<stop offset="1" stop-color="#FA3EBA"/>
</linearGradient>
</defs>
</svg>
