<svg width="20" height="20" viewBox="0 0 20 20" fill="none" xmlns="http://www.w3.org/2000/svg">
<path fill-rule="evenodd" clip-rule="evenodd" d="M0.833374 8.75004C0.833374 4.3778 4.3778 0.833374 8.75004 0.833374C13.1223 0.833374 16.6667 4.3778 16.6667 8.75004C16.6667 10.636 16.0072 12.3679 14.9063 13.7278L17.9673 16.7887C18.2927 17.1142 18.2927 17.6418 17.9673 17.9673C17.6418 18.2927 17.1142 18.2927 16.7887 17.9673L13.7278 14.9063C12.3679 16.0072 10.636 16.6667 8.75004 16.6667C4.3778 16.6667 0.833374 13.1223 0.833374 8.75004ZM8.75004 2.50004C5.29828 2.50004 2.50004 5.29828 2.50004 8.75004C2.50004 12.2018 5.29828 15 8.75004 15C12.2018 15 15 12.2018 15 8.75004C15 5.29828 12.2018 2.50004 8.75004 2.50004ZM5.80376 5.38706C6.5569 4.63397 7.5997 4.16671 8.75004 4.16671C9.90038 4.16671 10.9432 4.63397 11.6963 5.38708C12.0217 5.71251 12.0217 6.24015 11.6963 6.56559C11.3709 6.89102 10.8432 6.89102 10.5178 6.56559C10.0645 6.11228 9.44062 5.83337 8.75004 5.83337C8.05947 5.83337 7.4356 6.11227 6.98223 6.56561C6.65679 6.89103 6.12915 6.89102 5.80372 6.56557C5.4783 6.24012 5.47832 5.71248 5.80376 5.38706Z" fill="black" fill-opacity="0.4"/>
</svg>
